<mxfile host="app.diagrams.net" agent="Mozilla/5.0 (Windows NT 10.0; Win64; x64) AppleWebKit/537.36 (KHTML, like Gecko) Chrome/137.0.0.0 Safari/537.36" version="27.1.3">
  <diagram name="Page-1" id="bhX3MlZSJxK7C2xfbymI">
    <mxGraphModel dx="719" dy="363" grid="1" gridSize="10" guides="1" tooltips="1" connect="1" arrows="1" fold="1" page="1" pageScale="1" pageWidth="850" pageHeight="1100" math="0" shadow="0">
      <root>
        <mxCell id="0" />
        <mxCell id="1" parent="0" />
        <mxCell id="_utX082zCDjnnDW0_n-g-6" style="edgeStyle=orthogonalEdgeStyle;rounded=0;orthogonalLoop=1;jettySize=auto;html=1;exitX=0.5;exitY=0;exitDx=0;exitDy=0;entryX=0.5;entryY=0;entryDx=0;entryDy=0;curved=1;" edge="1" parent="1" source="_utX082zCDjnnDW0_n-g-1" target="_utX082zCDjnnDW0_n-g-2">
          <mxGeometry relative="1" as="geometry">
            <Array as="points">
              <mxPoint x="210" y="130" />
              <mxPoint x="420" y="130" />
            </Array>
          </mxGeometry>
        </mxCell>
        <mxCell id="_utX082zCDjnnDW0_n-g-1" value="IDLE&lt;br&gt;------------&lt;div&gt;lock=0&lt;/div&gt;" style="ellipse;whiteSpace=wrap;html=1;" vertex="1" parent="1">
          <mxGeometry x="150" y="160" width="120" height="80" as="geometry" />
        </mxCell>
        <mxCell id="_utX082zCDjnnDW0_n-g-16" style="edgeStyle=orthogonalEdgeStyle;rounded=0;orthogonalLoop=1;jettySize=auto;html=1;exitX=1;exitY=0;exitDx=0;exitDy=0;entryX=0.5;entryY=0;entryDx=0;entryDy=0;curved=1;" edge="1" parent="1" source="_utX082zCDjnnDW0_n-g-2" target="_utX082zCDjnnDW0_n-g-3">
          <mxGeometry relative="1" as="geometry">
            <Array as="points">
              <mxPoint x="460" y="172" />
              <mxPoint x="460" y="130" />
              <mxPoint x="640" y="130" />
            </Array>
          </mxGeometry>
        </mxCell>
        <mxCell id="_utX082zCDjnnDW0_n-g-2" value="S1_1&lt;div&gt;----------&lt;/div&gt;&lt;div&gt;lock=0&lt;/div&gt;" style="ellipse;whiteSpace=wrap;html=1;" vertex="1" parent="1">
          <mxGeometry x="360" y="160" width="120" height="80" as="geometry" />
        </mxCell>
        <mxCell id="_utX082zCDjnnDW0_n-g-9" style="edgeStyle=orthogonalEdgeStyle;rounded=0;orthogonalLoop=1;jettySize=auto;html=1;exitX=1;exitY=0.5;exitDx=0;exitDy=0;entryX=1;entryY=0.5;entryDx=0;entryDy=0;curved=1;" edge="1" parent="1" source="_utX082zCDjnnDW0_n-g-3" target="_utX082zCDjnnDW0_n-g-5">
          <mxGeometry relative="1" as="geometry" />
        </mxCell>
        <mxCell id="_utX082zCDjnnDW0_n-g-18" style="edgeStyle=orthogonalEdgeStyle;rounded=0;orthogonalLoop=1;jettySize=auto;html=1;exitX=0;exitY=0;exitDx=0;exitDy=0;entryX=1;entryY=0.5;entryDx=0;entryDy=0;curved=1;" edge="1" parent="1" source="_utX082zCDjnnDW0_n-g-3" target="_utX082zCDjnnDW0_n-g-2">
          <mxGeometry relative="1" as="geometry">
            <Array as="points">
              <mxPoint x="520" y="172" />
              <mxPoint x="520" y="200" />
            </Array>
          </mxGeometry>
        </mxCell>
        <mxCell id="_utX082zCDjnnDW0_n-g-3" value="S2_0&lt;div&gt;----------&lt;/div&gt;&lt;div&gt;lock=0&lt;/div&gt;" style="ellipse;whiteSpace=wrap;html=1;" vertex="1" parent="1">
          <mxGeometry x="580" y="160" width="120" height="80" as="geometry" />
        </mxCell>
        <mxCell id="_utX082zCDjnnDW0_n-g-12" style="edgeStyle=orthogonalEdgeStyle;rounded=0;orthogonalLoop=1;jettySize=auto;html=1;exitX=1;exitY=0;exitDx=0;exitDy=0;entryX=0;entryY=0.5;entryDx=0;entryDy=0;curved=1;" edge="1" parent="1" source="_utX082zCDjnnDW0_n-g-4" target="_utX082zCDjnnDW0_n-g-3">
          <mxGeometry relative="1" as="geometry">
            <Array as="points">
              <mxPoint x="530" y="332" />
              <mxPoint x="530" y="200" />
            </Array>
          </mxGeometry>
        </mxCell>
        <mxCell id="_utX082zCDjnnDW0_n-g-13" style="edgeStyle=orthogonalEdgeStyle;rounded=0;orthogonalLoop=1;jettySize=auto;html=1;exitX=0.5;exitY=0;exitDx=0;exitDy=0;entryX=0;entryY=0.5;entryDx=0;entryDy=0;curved=1;" edge="1" parent="1" source="_utX082zCDjnnDW0_n-g-4" target="_utX082zCDjnnDW0_n-g-2">
          <mxGeometry relative="1" as="geometry" />
        </mxCell>
        <mxCell id="_utX082zCDjnnDW0_n-g-4" value="S4_1&lt;div&gt;----------&lt;/div&gt;&lt;div&gt;lock=1&lt;/div&gt;" style="ellipse;whiteSpace=wrap;html=1;" vertex="1" parent="1">
          <mxGeometry x="260" y="320" width="120" height="80" as="geometry" />
        </mxCell>
        <mxCell id="_utX082zCDjnnDW0_n-g-10" style="edgeStyle=orthogonalEdgeStyle;rounded=0;orthogonalLoop=1;jettySize=auto;html=1;exitX=0.5;exitY=1;exitDx=0;exitDy=0;entryX=0.5;entryY=1;entryDx=0;entryDy=0;curved=1;" edge="1" parent="1" source="_utX082zCDjnnDW0_n-g-5" target="_utX082zCDjnnDW0_n-g-4">
          <mxGeometry relative="1" as="geometry">
            <Array as="points">
              <mxPoint x="525" y="430" />
              <mxPoint x="320" y="430" />
            </Array>
          </mxGeometry>
        </mxCell>
        <mxCell id="_utX082zCDjnnDW0_n-g-14" style="edgeStyle=orthogonalEdgeStyle;rounded=0;orthogonalLoop=1;jettySize=auto;html=1;exitX=1;exitY=1;exitDx=0;exitDy=0;entryX=0;entryY=1;entryDx=0;entryDy=0;curved=1;" edge="1" parent="1" source="_utX082zCDjnnDW0_n-g-5" target="_utX082zCDjnnDW0_n-g-1">
          <mxGeometry relative="1" as="geometry">
            <Array as="points">
              <mxPoint x="567" y="470" />
              <mxPoint x="168" y="470" />
            </Array>
          </mxGeometry>
        </mxCell>
        <mxCell id="_utX082zCDjnnDW0_n-g-5" value="S3_0&lt;div&gt;----------&lt;/div&gt;&lt;div&gt;lock=0&lt;/div&gt;" style="ellipse;whiteSpace=wrap;html=1;" vertex="1" parent="1">
          <mxGeometry x="465" y="320" width="120" height="80" as="geometry" />
        </mxCell>
        <mxCell id="_utX082zCDjnnDW0_n-g-19" value="din=1" style="text;strokeColor=none;align=center;fillColor=none;html=1;verticalAlign=middle;whiteSpace=wrap;rounded=0;" vertex="1" parent="1">
          <mxGeometry x="390" y="250" width="60" height="20" as="geometry" />
        </mxCell>
        <mxCell id="_utX082zCDjnnDW0_n-g-20" style="edgeStyle=orthogonalEdgeStyle;rounded=0;orthogonalLoop=1;jettySize=auto;html=1;exitX=0;exitY=0;exitDx=0;exitDy=0;entryX=0;entryY=0.5;entryDx=0;entryDy=0;curved=1;" edge="1" parent="1" source="_utX082zCDjnnDW0_n-g-1" target="_utX082zCDjnnDW0_n-g-1">
          <mxGeometry relative="1" as="geometry">
            <Array as="points">
              <mxPoint x="168" y="160" />
              <mxPoint x="120" y="160" />
              <mxPoint x="120" y="200" />
            </Array>
          </mxGeometry>
        </mxCell>
        <mxCell id="_utX082zCDjnnDW0_n-g-21" value="din=0" style="text;strokeColor=none;align=center;fillColor=none;html=1;verticalAlign=middle;whiteSpace=wrap;rounded=0;" vertex="1" parent="1">
          <mxGeometry x="100" y="140" width="60" height="20" as="geometry" />
        </mxCell>
        <mxCell id="_utX082zCDjnnDW0_n-g-22" value="din=0" style="text;strokeColor=none;align=center;fillColor=none;html=1;verticalAlign=middle;whiteSpace=wrap;rounded=0;" vertex="1" parent="1">
          <mxGeometry x="520" y="110" width="60" height="20" as="geometry" />
        </mxCell>
        <mxCell id="_utX082zCDjnnDW0_n-g-23" value="din=1" style="text;strokeColor=none;align=center;fillColor=none;html=1;verticalAlign=middle;whiteSpace=wrap;rounded=0;" vertex="1" parent="1">
          <mxGeometry x="380" y="410" width="60" height="20" as="geometry" />
        </mxCell>
        <mxCell id="_utX082zCDjnnDW0_n-g-24" value="din=0" style="text;strokeColor=none;align=center;fillColor=none;html=1;verticalAlign=middle;whiteSpace=wrap;rounded=0;" vertex="1" parent="1">
          <mxGeometry x="390" y="310" width="60" height="20" as="geometry" />
        </mxCell>
        <mxCell id="_utX082zCDjnnDW0_n-g-25" style="edgeStyle=orthogonalEdgeStyle;rounded=0;orthogonalLoop=1;jettySize=auto;html=1;exitX=0;exitY=1;exitDx=0;exitDy=0;entryX=0.838;entryY=0.913;entryDx=0;entryDy=0;entryPerimeter=0;curved=1;" edge="1" parent="1" source="_utX082zCDjnnDW0_n-g-2" target="_utX082zCDjnnDW0_n-g-2">
          <mxGeometry relative="1" as="geometry">
            <Array as="points">
              <mxPoint x="378" y="270" />
              <mxPoint x="461" y="270" />
            </Array>
          </mxGeometry>
        </mxCell>
        <mxCell id="_utX082zCDjnnDW0_n-g-26" value="din=1" style="text;strokeColor=none;align=center;fillColor=none;html=1;verticalAlign=middle;whiteSpace=wrap;rounded=0;" vertex="1" parent="1">
          <mxGeometry x="510" y="150" width="60" height="20" as="geometry" />
        </mxCell>
        <mxCell id="_utX082zCDjnnDW0_n-g-27" value="din=0" style="text;strokeColor=none;align=center;fillColor=none;html=1;verticalAlign=middle;whiteSpace=wrap;rounded=0;" vertex="1" parent="1">
          <mxGeometry x="730" y="300" width="60" height="20" as="geometry" />
        </mxCell>
        <mxCell id="_utX082zCDjnnDW0_n-g-28" value="din=0" style="text;strokeColor=none;align=center;fillColor=none;html=1;verticalAlign=middle;whiteSpace=wrap;rounded=0;" vertex="1" parent="1">
          <mxGeometry x="350" y="470" width="60" height="20" as="geometry" />
        </mxCell>
        <mxCell id="_utX082zCDjnnDW0_n-g-29" value="" style="endArrow=classic;html=1;rounded=0;entryX=0.333;entryY=0;entryDx=0;entryDy=0;entryPerimeter=0;" edge="1" parent="1" target="_utX082zCDjnnDW0_n-g-1">
          <mxGeometry width="50" height="50" relative="1" as="geometry">
            <mxPoint x="190" y="80" as="sourcePoint" />
            <mxPoint x="190" y="150" as="targetPoint" />
          </mxGeometry>
        </mxCell>
        <mxCell id="_utX082zCDjnnDW0_n-g-30" value="rst_n=0" style="text;strokeColor=none;align=center;fillColor=none;html=1;verticalAlign=middle;whiteSpace=wrap;rounded=0;" vertex="1" parent="1">
          <mxGeometry x="190" y="70" width="60" height="30" as="geometry" />
        </mxCell>
        <mxCell id="_utX082zCDjnnDW0_n-g-31" value="din=1" style="text;strokeColor=none;align=center;fillColor=none;html=1;verticalAlign=middle;whiteSpace=wrap;rounded=0;" vertex="1" parent="1">
          <mxGeometry x="260" y="270" width="60" height="20" as="geometry" />
        </mxCell>
      </root>
    </mxGraphModel>
  </diagram>
</mxfile>
